<svg width="200" height="200" viewBox="0 0 200 200" fill="none" xmlns="http://www.w3.org/2000/svg">
  <rect width="200" height="200" rx="10" fill="#F5F5F5"/>
  <rect x="40" y="60" width="120" height="40" rx="5" fill="white" stroke="#E0E0E0"/>
  <text x="55" y="85" font-family="Arial" font-size="14" fill="#999">Email Address</text>
  <rect x="40" y="120" width="120" height="40" rx="5" fill="#F59E0B" stroke="none"/>
  <text x="55" y="145" font-family="Arial" font-weight="bold" font-size="14" fill="white">Reset Password</text>
  <path d="M100 30 C91.716 30 85 36.716 85 45 L85 50 L80 50 C78.895 50 78 50.895 78 52 L78 78 C78 79.105 78.895 80 80 80 L120 80 C121.105 80 122 79.105 122 78 L122 52 C122 50.895 121.105 50 120 50 L115 50 L115 45 C115 36.716 108.284 30 100 30 Z M100 35 C105.523 35 110 39.477 110 45 L110 50 L90 50 L90 45 C90 39.477 94.477 35 100 35 Z M100 60 C101.105 60 102 60.895 102 62 C102 62.732 101.599 63.356 101 63.723 L101 68 C101 69.105 100.105 70 99 70 C97.895 70 97 69.105 97 68 L97 63.723 C96.401 63.356 96 62.732 96 62 C96 60.895 96.895 60 98 60 Z" fill="#F59E0B"/>
</svg> 