<svg width="200" height="200" viewBox="0 0 200 200" fill="none" xmlns="http://www.w3.org/2000/svg">
  <rect width="200" height="200" rx="10" fill="#F5F5F5"/>
  <path d="M100 30 C87.85 30 78 39.85 78 52 L78 60.5 C78 70.9 73.9 80.95 66.95 88.4 L63.55 92 C61.65 94 63.05 97.5 65.85 97.5 L134.15 97.5 C136.95 97.5 138.35 94 136.45 92 L133.05 88.4 C126.15 80.95 122 70.9 122 60.5 L122 52 C122 39.85 112.15 30 100 30 Z" fill="#EC4899"/>
  <circle cx="100" cy="115" r="12" fill="#EC4899"/>
  <rect x="40" y="140" width="35" height="35" rx="5" fill="white" stroke="#E2E8F0"/>
  <circle cx="48" cy="148" r="3" fill="#EC4899"/>
  <rect x="55" y="145" width="15" height="6" rx="3" fill="#E2E8F0"/>
  <rect x="55" y="155" width="10" height="4" rx="2" fill="#E2E8F0"/>
  <rect x="40" y="145" width="3" height="30" rx="1.5" fill="#EC4899"/>
  <rect x="85" y="140" width="35" height="35" rx="5" fill="white" stroke="#E2E8F0"/>
  <circle cx="93" cy="148" r="3" fill="#3B82F6"/>
  <rect x="100" y="145" width="15" height="6" rx="3" fill="#E2E8F0"/>
  <rect x="100" y="155" width="10" height="4" rx="2" fill="#E2E8F0"/>
  <rect x="130" y="140" width="35" height="35" rx="5" fill="white" stroke="#E2E8F0"/>
  <circle cx="138" cy="148" r="3" fill="#10B981"/>
  <rect x="145" y="145" width="15" height="6" rx="3" fill="#E2E8F0"/>
  <rect x="145" y="155" width="10" height="4" rx="2" fill="#E2E8F0"/>
</svg> 